<svg width="15" height="15" viewBox="0 0 15 15" fill="none" xmlns="http://www.w3.org/2000/svg">
<g clip-path="url(#clip0_37_723)">
<path d="M8.83782 7.5L14.9018 1.43638C15.0323 1.3057 15.0323 1.09396 14.9018 0.963277L14.0369 0.097971C13.9742 0.035396 13.8889 0 13.8002 0C13.7114 0 13.6262 0.035396 13.5635 0.097971L7.49973 6.16175L1.43595 0.097971C1.31032 -0.0276531 1.08799 -0.0274951 0.962684 0.097971L0.0980106 0.963277C-0.0326702 1.09396 -0.0326702 1.3057 0.0980106 1.43638L6.16179 7.5L0.0980106 13.5636C-0.0326702 13.6943 -0.0326702 13.906 0.0980106 14.0367L0.962842 14.902C1.02558 14.9646 1.11075 15 1.19955 15C1.28836 15 1.37337 14.9646 1.43611 14.902L7.49988 8.83825L13.5637 14.902C13.6264 14.9646 13.7117 15 13.8004 15C13.889 15 13.9743 14.9646 14.0371 14.902L14.9019 14.0367C15.0324 13.906 15.0324 13.6943 14.9019 13.5636L8.83782 7.5Z" fill="black"/>
</g>
<defs>
<clipPath id="clip0_37_723">
<rect width="15" height="15" fill="white"/>
</clipPath>
</defs>
</svg>
