<svg width="98" height="98" viewBox="0 0 98 98" fill="none" xmlns="http://www.w3.org/2000/svg">
<path d="M49 79.625C48.7293 79.625 48.4696 79.5175 48.2782 79.326C48.0867 79.1346 47.9792 78.8749 47.9792 78.6042V57.1667C47.9792 56.896 48.0867 56.6363 48.2782 56.4449C48.4696 56.2534 48.7293 56.1459 49 56.1459C49.2707 56.1459 49.5304 56.2534 49.7218 56.4449C49.9133 56.6363 50.0208 56.896 50.0208 57.1667V78.6042C50.0208 78.8749 49.9133 79.1346 49.7218 79.326C49.5304 79.5175 49.2707 79.625 49 79.625Z" fill="#2B292B"/>
<path d="M49 58.9837C48.8533 58.985 48.7081 58.9547 48.5742 58.8948C48.4404 58.8349 48.321 58.7469 48.2242 58.6367C47.8567 58.2079 47.3054 57.6771 46.6521 57.0646C43.5488 54.1042 37.8117 48.5917 37.8117 40.7313C37.8117 33.3813 43.6508 27.4808 46.795 24.3979C47.3871 23.8058 47.8771 23.2954 48.2242 22.9075C48.3235 22.8012 48.4436 22.7164 48.5771 22.6584C48.7105 22.6005 48.8545 22.5706 49 22.5706C49.1455 22.5706 49.2895 22.6005 49.4229 22.6584C49.5564 22.7164 49.6765 22.8012 49.7758 22.9075C50.1229 23.3158 50.6129 23.8058 51.205 24.3979C54.3492 27.5625 60.1883 33.4425 60.1883 40.7313C60.1883 48.5713 54.4308 54.0838 51.3479 57.0646C50.6946 57.6975 50.1433 58.2079 49.7758 58.6367C49.679 58.7469 49.5596 58.8349 49.4258 58.8948C49.2919 58.9547 49.1467 58.985 49 58.9837ZM49 24.99L48.2446 25.7658C45.3046 28.7263 39.8533 34.2183 39.8533 40.7313C39.8533 47.7138 44.9983 52.6342 48.02 55.5742L49 56.4725L49.9392 55.5742C53.0221 52.6342 58.1058 47.6933 58.1058 40.7313C58.1058 34.2183 52.6342 28.7058 49.7146 25.7658L49 24.99Z" fill="#2B292B"/>
<path d="M44.6921 58.9634C40.2208 58.9634 33.6467 58.4325 28.8896 53.655C23.6833 48.4488 23.6629 40.1392 23.6425 35.6884C23.6425 34.8513 23.6425 34.1367 23.6425 33.6467C23.6301 33.4988 23.6501 33.3499 23.7011 33.2106C23.7522 33.0712 23.833 32.9446 23.9379 32.8396C24.0429 32.7347 24.1695 32.6539 24.3089 32.6028C24.4482 32.5518 24.5971 32.5318 24.745 32.5442C25.2758 32.5442 25.97 32.5442 26.7867 32.5442C31.3665 32.3243 35.9418 33.0613 40.2208 34.7084C40.4672 34.8221 40.6583 35.029 40.7521 35.2836C40.8459 35.5382 40.8348 35.8197 40.721 36.0661C40.6073 36.3125 40.4004 36.5036 40.1458 36.5974C39.8912 36.6912 39.6097 36.68 39.3633 36.5663C35.3465 35.0112 31.0481 34.3157 26.7458 34.5246H25.6637C25.6637 34.8513 25.6637 35.2188 25.6637 35.6067C25.6637 39.69 25.6638 47.53 30.3187 52.1238C35.2392 57.0442 42.385 56.9013 46.6521 56.8196C47.6321 56.8196 48.4488 56.8196 49.0817 56.8196C49.3524 56.8386 49.6045 56.9643 49.7826 57.1691C49.9606 57.374 50.05 57.6412 50.031 57.9119C50.0121 58.1826 49.8864 58.4348 49.6815 58.6128C49.4767 58.7909 49.2095 58.8802 48.9387 58.8613C48.3671 58.8613 47.6117 58.8613 46.7133 58.8613H44.6717L44.6921 58.9634Z" fill="#2B292B"/>
<path d="M53.3079 58.9634H51.2663C50.3679 58.9634 49.6125 58.9634 49.0408 58.9634C48.7701 58.9823 48.5029 58.8929 48.2981 58.7149C48.0932 58.5368 47.9675 58.2847 47.9485 58.014C47.9296 57.7432 48.019 57.4761 48.197 57.2712C48.3751 57.0664 48.6272 56.9406 48.8979 56.9217C49.5104 56.9217 50.3271 56.9217 51.3275 56.9217C55.5742 56.9217 62.72 57.1667 67.6608 52.2259C72.275 47.6117 72.2954 39.8738 72.3158 35.7088C72.3158 35.3208 72.3158 34.9533 72.3158 34.6267H71.2542C66.9519 34.4183 62.6537 35.1138 58.6367 36.6683C58.508 36.7233 58.3697 36.7524 58.2298 36.7539C58.0898 36.7555 57.951 36.7294 57.8211 36.6773C57.6912 36.6251 57.5729 36.5479 57.4729 36.4501C57.3729 36.3522 57.2931 36.2356 57.2381 36.1069C57.1832 35.9782 57.1541 35.8399 57.1526 35.7C57.151 35.5601 57.1771 35.4212 57.2292 35.2913C57.2813 35.1615 57.3585 35.0431 57.4564 34.9431C57.5543 34.8431 57.6709 34.7633 57.7996 34.7083C62.0941 33.1014 66.6762 32.4061 71.2542 32.6667C72.0913 32.6667 72.8058 32.6667 73.2958 32.6667C73.4427 32.6586 73.5895 32.6817 73.7268 32.7345C73.864 32.7873 73.9885 32.8686 74.0921 32.9729C74.1975 33.0757 74.2795 33.2001 74.3324 33.3375C74.3852 33.475 74.4077 33.6222 74.3983 33.7692C74.3983 34.3 74.3983 34.9942 74.3983 35.8109C74.3983 40.2617 74.3983 48.5713 69.1513 53.7775C64.3533 58.4325 57.7792 58.9634 53.3079 58.9634Z" fill="#2B292B"/>
<path d="M88.8125 91.875H9.1875C6.75082 91.875 4.41395 90.907 2.69096 89.184C0.967966 87.4611 0 85.1242 0 82.6875L0 15.3125C0 12.8758 0.967966 10.5389 2.69096 8.81596C4.41395 7.09297 6.75082 6.125 9.1875 6.125H88.8125C91.2492 6.125 93.5861 7.09297 95.309 8.81596C97.032 10.5389 98 12.8758 98 15.3125V82.6875C98 85.1242 97.032 87.4611 95.309 89.184C93.5861 90.907 91.2492 91.875 88.8125 91.875ZM9.1875 8.16667C7.29231 8.16667 5.47474 8.91953 4.13463 10.2596C2.79453 11.5997 2.04167 13.4173 2.04167 15.3125V82.6875C2.04167 84.5827 2.79453 86.4003 4.13463 87.7404C5.47474 89.0805 7.29231 89.8333 9.1875 89.8333H88.8125C90.7077 89.8333 92.5253 89.0805 93.8654 87.7404C95.2055 86.4003 95.9583 84.5827 95.9583 82.6875V15.3125C95.9583 13.4173 95.2055 11.5997 93.8654 10.2596C92.5253 8.91953 90.7077 8.16667 88.8125 8.16667H9.1875Z" fill="#2B292B"/>
</svg>
